<svg width="150" height="42" viewBox="0 0 150 42" fill="none" xmlns="http://www.w3.org/2000/svg">
    <path d="M22.0078 7.40625V24.1582C22.0078 26.0566 21.6035 27.7031 20.7949 29.0977C19.9863 30.4805 18.8262 31.5352 17.3145 32.2617C15.8027 32.9883 14.0156 33.3516 11.9531 33.3516C8.83594 33.3516 6.38086 32.543 4.58789 30.9258C2.79492 29.3086 1.88086 27.0938 1.8457 24.2812V7.40625H8.05078V24.4043C8.12109 27.2051 9.42188 28.6055 11.9531 28.6055C13.2305 28.6055 14.1973 28.2539 14.8535 27.5508C15.5098 26.8477 15.8379 25.7051 15.8379 24.123V7.40625H22.0078ZM34.5762 23.4727L32.0449 26.25V33H25.875V7.40625H32.0449V18.6914L34.1895 15.4395L39.709 7.40625H47.3379L38.6895 18.7266L47.3379 33H40.0254L34.5762 23.4727ZM58.4121 23.9648H55.0723V33H48.9023V7.40625H58.9746C62.0098 7.40625 64.3828 8.08008 66.0938 9.42773C67.8047 10.7754 68.6602 12.6797 68.6602 15.1406C68.6602 16.9219 68.2969 18.3984 67.5703 19.5703C66.8555 20.7422 65.7305 21.6914 64.1953 22.418L69.5391 32.7363V33H62.9297L58.4121 23.9648ZM55.0723 19.2012H58.9746C60.1465 19.2012 61.0254 18.8965 61.6113 18.2871C62.209 17.666 62.5078 16.8047 62.5078 15.7031C62.5078 14.6016 62.209 13.7402 61.6113 13.1191C61.0137 12.4863 60.1348 12.1699 58.9746 12.1699H55.0723V19.2012Z" fill="#1E40C8"/>
    <path d="M93.0938 24.334C93.0117 26.1152 92.5312 27.6914 91.6523 29.0625C90.7734 30.4219 89.5371 31.4766 87.9434 32.2266C86.3613 32.9766 84.5508 33.3516 82.5117 33.3516C79.1484 33.3516 76.5 32.2559 74.5664 30.0645C72.6328 27.873 71.666 24.7793 71.666 20.7832V19.5176C71.666 17.0098 72.0996 14.8184 72.9668 12.9434C73.8457 11.0566 75.1055 9.60352 76.7461 8.58398C78.3867 7.55273 80.2852 7.03711 82.4414 7.03711C85.5469 7.03711 88.043 7.85742 89.9297 9.49805C91.8164 11.127 92.8887 13.377 93.1465 16.248H86.9941C86.9473 14.6895 86.5547 13.5703 85.8164 12.8906C85.0781 12.2109 83.9531 11.8711 82.4414 11.8711C80.9062 11.8711 79.7812 12.4453 79.0664 13.5938C78.3516 14.7422 77.9766 16.5762 77.9414 19.0957V20.9062C77.9414 23.6367 78.2812 25.5879 78.9609 26.7598C79.6523 27.9316 80.8359 28.5176 82.5117 28.5176C83.9297 28.5176 85.0137 28.1836 85.7637 27.5156C86.5137 26.8477 86.9121 25.7871 86.959 24.334H93.0938ZM105.521 23.9648H102.182V33H96.0117V7.40625H106.084C109.119 7.40625 111.492 8.08008 113.203 9.42773C114.914 10.7754 115.77 12.6797 115.77 15.1406C115.77 16.9219 115.406 18.3984 114.68 19.5703C113.965 20.7422 112.84 21.6914 111.305 22.418L116.648 32.7363V33H110.039L105.521 23.9648ZM102.182 19.2012H106.084C107.256 19.2012 108.135 18.8965 108.721 18.2871C109.318 17.666 109.617 16.8047 109.617 15.7031C109.617 14.6016 109.318 13.7402 108.721 13.1191C108.123 12.4863 107.244 12.1699 106.084 12.1699H102.182V19.2012ZM127.6 7.40625L133.312 25.2129L139.008 7.40625H147.129V33H140.941V27.0234L141.539 14.7891L135.352 33H131.273L125.068 14.7715L125.666 27.0234V33H119.496V7.40625H127.6Z" fill="#FFD249"/>
</svg>