<svg id="Слой_1" data-name="Слой 1" xmlns="http://www.w3.org/2000/svg" viewBox="0 0 402.27 217.46"><defs><style>.cls-1{fill:#1e40c8;}.cls-2{fill:#ffd249;}.cls-3{fill:#f14444;}</style></defs><title>logo_v2_29</title><path class="cls-1" d="M158.15,226.84V256a16.89,16.89,0,0,1-2.11,8.58,13.76,13.76,0,0,1-6,5.5,21.34,21.34,0,0,1-9.31,1.89q-8.13,0-12.8-4.22c-3.12-2.81-4.7-6.65-4.77-11.54V226.84H133.9v29.53q.18,7.31,6.78,7.3a6.57,6.57,0,0,0,5-1.83q1.71-1.83,1.71-6v-29ZM180,254.75l-4.39,4.83v11.73H164.87V226.84h10.72v19.61l3.72-5.65,9.59-14h13.26l-15,19.67,15,24.8H189.45Zm41.42.86h-5.8v15.7H204.88V226.84h17.5q7.91,0,12.37,3.51t4.46,9.93a14.37,14.37,0,0,1-1.9,7.69,13.21,13.21,0,0,1-5.86,4.95l9.28,17.93v.46H229.25Zm-5.8-8.28h6.78a6.08,6.08,0,0,0,4.58-1.59,7.24,7.24,0,0,0,0-9,6,6,0,0,0-4.58-1.64H215.6Z" transform="translate(-48.85 -141.87)"/><path class="cls-2" d="M281.66,256.25a16.3,16.3,0,0,1-2.51,8.22,15.05,15.05,0,0,1-6.44,5.49,21.68,21.68,0,0,1-9.44,2q-8.76,0-13.8-5.71t-5-16.13v-2.2a26.91,26.91,0,0,1,2.26-11.42,17.2,17.2,0,0,1,6.56-7.57,18.16,18.16,0,0,1,9.9-2.69q8.1,0,13,4.27t5.59,11.73H271.06q-.12-4.06-2.05-5.83t-5.86-1.77a6.38,6.38,0,0,0-5.86,3c-1.25,2-1.9,5.18-2,9.56v3.15q0,7.11,1.77,10.17t6.17,3a8.22,8.22,0,0,0,5.65-1.74q2-1.74,2.08-5.53Zm21.59-.64h-5.8v15.7H286.73V226.84h17.5q7.9,0,12.37,3.51t4.46,9.93a14.28,14.28,0,0,1-1.9,7.69,13.16,13.16,0,0,1-5.86,4.95l9.29,17.93v.46H311.1Zm-5.8-8.28h6.78a6.07,6.07,0,0,0,4.58-1.59,7.24,7.24,0,0,0,0-9,6,6,0,0,0-4.58-1.64h-6.78Zm44.16-20.49,9.93,30.94,9.9-30.94h14.11v44.47H364.79V260.92l1-21.25-10.75,31.64H348l-10.78-31.67,1,21.28v10.39H327.53V226.84Z" transform="translate(-48.85 -141.87)"/><g id="Christmas_card" data-name="Christmas card"><g id="Christmas_card-2" data-name="Christmas card"><g id="Elements"><path class="cls-3" d="M330.52,194.13l.53-.83c.9-3.65-3.58-6.7-3.76-8.74l-4.14,6.56a5.19,5.19,0,0,0,.57,3Z" transform="translate(-48.85 -141.87)"/><path class="cls-3" d="M179.59,166.93a28.37,28.37,0,0,0-3.32-3.39,23.69,23.69,0,0,0-4.53-2.87l5.8,9.66,3.34-2C180.44,167.92,180,167.43,179.59,166.93Z" transform="translate(-48.85 -141.87)"/><path class="cls-3" d="M96.77,229.33V204.77c-1.72,1.95-3.42,3.83-5.12,5.65Q94.47,220.13,96.77,229.33Z" transform="translate(-48.85 -141.87)"/><polygon class="cls-3" points="136.54 44.91 128.31 31.21 127.93 31.42 136.54 44.91"/><path class="cls-3" d="M68.07,261a24,24,0,0,0,28.7,16.46V236.85a17.51,17.51,0,0,0-2.27-.54c-13.84-2.38-22.46,9-22.46,9A21,21,0,0,1,96.77,234V230.9a24,24,0,0,0-27.48,13.2c0,.09-.08.19-.12.29-.33.73-.62,1.48-.88,2.25a15.72,15.72,0,0,1-1.13,1.48l-.18.21,1.44,1.76L66.7,251.8l2.12,2-2.21,2,1.77,1.95-1.59,1.48A17.52,17.52,0,0,1,68.07,261Z" transform="translate(-48.85 -141.87)"/><path class="cls-3" d="M175.24,174.11l-5.75,3.1a13.15,13.15,0,0,1-1.1,2,1,1,0,0,1-.29.28.87.87,0,0,1-.92,0,.85.85,0,0,1-.38-.82l-8,4.28,7.1,11.19H188Z" transform="translate(-48.85 -141.87)"/><path class="cls-3" d="M250.52,170.53c1.3,1.06,2.92.57,4.45.39a82.68,82.68,0,0,1,10.88-1,51.19,51.19,0,0,1,29.41,9.69,42.32,42.32,0,0,0-1.33-4.34c-7.6-20.28-17.42-29.19-27.95-27-10.22,4.16-16.59,16.93-16.8,18.72A4.1,4.1,0,0,0,250.52,170.53Z" transform="translate(-48.85 -141.87)"/><path class="cls-3" d="M168.52,160.36l7.09,11.1.43-.25-7-11.62C168.86,159.85,168.68,160.11,168.52,160.36Z" transform="translate(-48.85 -141.87)"/><path class="cls-3" d="M294,162.41c-1.93-1.55-8.23-5.65-8.23-5.65a59.27,59.27,0,0,1,5.64,7.74A8.93,8.93,0,0,1,294,162.41Z" transform="translate(-48.85 -141.87)"/><path class="cls-3" d="M292.71,167c1.52,3.06,3,6.37,4.43,9.9a6.12,6.12,0,0,0,1.61.16,6.75,6.75,0,1,0-6-10.06Z" transform="translate(-48.85 -141.87)"/><path class="cls-3" d="M168.84,167.65c.83,2.06,1.74,4.31,1.38,7l3.89-2.28-6.38-10C167.41,164.11,168.07,165.75,168.84,167.65Z" transform="translate(-48.85 -141.87)"/><path class="cls-3" d="M338.92,180.83c.89-3.65-3.58-6.7-3.76-8.73L331,178.66c-.55,3.18,3.56,6.8,3.63,8.94Z" transform="translate(-48.85 -141.87)"/><path class="cls-3" d="M392.42,331.86c-.79-2.09-1.65-4.35-1.23-7l-3.94,2.19,6.16,10.12C393.77,335.42,393.14,333.77,392.42,331.86Z" transform="translate(-48.85 -141.87)"/><path class="cls-3" d="M392.58,339.15l-6.85-11.26-.43.25L392,339.91A8.65,8.65,0,0,0,392.58,339.15Z" transform="translate(-48.85 -141.87)"/><path class="cls-3" d="M402.75,316.78l-7.89-13.06a10.56,10.56,0,0,1-2.53.31H373.25l12.91,21.22,5.82-3a13.42,13.42,0,0,1,1.14-2,1.06,1.06,0,0,1,.29-.27.88.88,0,0,1,1.29.88Z" transform="translate(-48.85 -141.87)"/><path class="cls-3" d="M381.66,332.34a27.69,27.69,0,0,0,3.24,3.46,23.66,23.66,0,0,0,4.47,3L383.78,329l-3.38,1.88C380.83,331.33,381.24,331.83,381.66,332.34Z" transform="translate(-48.85 -141.87)"/><path class="cls-3" d="M392.33,194.13a10.6,10.6,0,0,1,10.6,10.61V216a20.54,20.54,0,0,0,12-5.14c11.25-10.06,7.42-24.91,7.42-24.91a22.5,22.5,0,0,1-19.39,32.56v3.24a25.75,25.75,0,0,0,22.24-37.31l-.16-.29a24.35,24.35,0,0,0-1.31-2.25c-.05-.19-.31-1-.49-1.94,0-.09,0-.19,0-.29l-2.44,0-.3-2.6-3.11.43-.21-3.18-2.83.18-.17-2.32a17,17,0,0,1-2.29-.07,25.75,25.75,0,0,0-35.29,22h15.81Z" transform="translate(-48.85 -141.87)"/><path class="cls-3" d="M418.6,172.6l.2,3.07,3-.42.31,2.78,1.66,0,.56-.68,1.62-2c.67-.83.19-2-.29-2.73-.15-.23-.28-.43-.44-.63a8.54,8.54,0,0,0,2.35-2c2-2.43,2.38-5.28.9-6.5s-4.2-.26-6.19,2.17a8.28,8.28,0,0,0-1.56,2.84l-.26-.12a3,3,0,0,0-1.85-.28,1.64,1.64,0,0,0-.89.54l-.22.28-1.5,1.81h0l-.4.49.13,1.62Zm4.44-6.4c1.6-2,3.84-2.9,4.89-2s.57,3.23-1,5.2a7.5,7.5,0,0,1-2.29,1.9c-.31-.28-.71-.63-1.27-1.09a15.81,15.81,0,0,0-1.73-1.28A7.24,7.24,0,0,1,423,166.2Z" transform="translate(-48.85 -141.87)"/><path class="cls-3" d="M365.83,167.21a16,16,0,0,0,1.77-3.77c-2-1-6.47.39-8.61-.08l-1.23,1.94c-1.18,3.73,3.41,6.9,3.61,9Z" transform="translate(-48.85 -141.87)"/><path class="cls-3" d="M357.59,179.21c-.3-2.87-3.57-6-3.57-8l-1.51,2.4a3.92,3.92,0,0,0,5.08,5.59Z" transform="translate(-48.85 -141.87)"/><path class="cls-3" d="M352.73,159a9.08,9.08,0,0,1,1.12-1.45h0c1.21-2.82.08-7.41.86-9.18a13.17,13.17,0,0,0-8,5.5c-.46,3.15,3.58,6.73,3.64,8.85Z" transform="translate(-48.85 -141.87)"/><path class="cls-3" d="M346.78,168.37c.9-3.65-3.58-6.7-3.75-8.74l-4.15,6.57c-.54,3.17,3.57,6.8,3.64,8.93Z" transform="translate(-48.85 -141.87)"/><path class="cls-3" d="M241.9,173.82a74.36,74.36,0,0,1,4.67-9.55s-4.91,6.26-9,12.43c1-.61,2.52-1.41,3.4-1.85A1.81,1.81,0,0,0,241.9,173.82Z" transform="translate(-48.85 -141.87)"/><path class="cls-3" d="M360,157.85c2.69,1.32,6.5-.79,8.07-.16a3.71,3.71,0,0,0-.09-.5,11.38,11.38,0,0,0-5.06-7.4,11.15,11.15,0,0,0-2.62-1.21c-1.47,1.73-.53,6.11-1.52,7.87A3.4,3.4,0,0,1,360,157.85Z" transform="translate(-48.85 -141.87)"/><path class="cls-3" d="M415.52,247.54q-5.17-8.89-9.69-17.44c-1,2-1.93,4-2.9,6.09v36.87c1.65-3.77,3.42-7.64,5.35-11.59Q411.87,254.12,415.52,247.54Z" transform="translate(-48.85 -141.87)"/><polygon class="cls-3" points="327.44 170.5 335.37 184.37 335.76 184.17 327.44 170.5"/><path class="cls-3" d="M172.34,304l-.47.92c-.56,3.72,4.17,6.35,4.54,8.36l3.53-6.91a4.73,4.73,0,0,0-.54-2.37Z" transform="translate(-48.85 -141.87)"/><path class="cls-3" d="M270.19,319.13c-.58-4.19,1.12-7.12-1.93-11.66a8.82,8.82,0,0,0-1.3-1.57,3.38,3.38,0,0,0-.35-.31l0,0c-3.33-3.09-17.06,1-23.61,7.89,7.91-6.38,23.23-9,20.42-4.19-5.27,3.67-15.5,6.51-20.33,7.63.94,5.72-2.35,7.17-2.37,7.18l.07-.08a2.61,2.61,0,0,0,.22-.23l.14-.17.16-.21a4.89,4.89,0,0,0,.34-.53,3.18,3.18,0,0,0,.16-.32c.05-.12.11-.23.16-.35a6.08,6.08,0,0,0,.25-.79,7.32,7.32,0,0,0,.15-.86,6.58,6.58,0,0,0,0-.89,6.23,6.23,0,0,0-.1-.88A5.19,5.19,0,0,0,242,318a4.75,4.75,0,0,0-.32-.72,3.53,3.53,0,0,0-1.21-1.28,4.12,4.12,0,0,0-5.28.9,6.27,6.27,0,0,0-.77,4.29,4,4,0,0,0,.19.85,2.62,2.62,0,0,0,.15.39c.06.12.11.25.18.36a3.7,3.7,0,0,0,.21.33c.08.09.14.2.22.28a4.93,4.93,0,0,0,.44.46,4.32,4.32,0,0,0,.38.32l.35.25s-3.7-.91-3-7c-9.94-3.5-15.93-6.15-19.25-8.48-3.11-4.79,12.45-1.91,20.4,4.43-6.61-6.92-20.43-11.35-23.69-8.18h0l-.46.37-.39.37c-3.36,3.38-3.35,6-3.11,8.67s0,5-1.06,6.5a6.59,6.59,0,0,0-.95,5.29c.48,1.32,4.1,3.6,15.88,2.49l1.13-.15,1.71-.27c.58-.1,1.17-.2,1.76-.32s1.18-.24,1.76-.37l.85-.2.84-.21.8-.22.75-.23c.5-.14,1-.32,1.38-.46s.81-.32,1.15-.46l.86-.4.71-.4c-.06,0-4.28,3.75-16.94,6.57-1,.94-2.11,2.06-3.27,3.34a48.3,48.3,0,0,0-5.35,6.89,21.42,21.42,0,0,0-3.24,8.1s6.65-1.75,9.26-.26c2.21,3.36,3.64,9.49,3.64,9.49a53.12,53.12,0,0,1,8.61-17.7c4.87-6.43,9.83-13.74,10.07-17.23a2.88,2.88,0,0,0,2.23.11s4.5,9.39,7.4,12.29c6.78,6.8,7.9,21.36,7.9,21.36l5.39-8.44a18.5,18.5,0,0,1,9.27,1.67s.09-4.13-3.63-11h0c-.19-.36-.4-.73-.62-1.1a32.41,32.41,0,0,0-2.6-3.89h0a28.09,28.09,0,0,0-2.91-3.21c-11.84-2.68-17.49-7.89-17.54-7.93s.32.19.75.43c.24.15.55.3.9.48s.75.37,1.18.57l.34.16.35.15.74.31.79.31.83.31.87.3.89.29.91.28c.31.09.61.19.92.27.62.17,1.24.34,1.85.48s1.22.29,1.81.42l.3.07h0l.17,0,.62.15.6.12.14,0a24.53,24.53,0,0,0,8.91.23c4.69-1,5.77-1.51,5.64-4.64S270.55,321.77,270.19,319.13Z" transform="translate(-48.85 -141.87)"/><path class="cls-3" d="M303.25,304h-14.1c.31.79.61,1.56.92,2.32a1.38,1.38,0,0,0,1.59.92h0c3.55-.82,7.4-1.86,11.46-3.2Z" transform="translate(-48.85 -141.87)"/><path class="cls-3" d="M339.55,335.59a7.85,7.85,0,0,0-.88-1L327.5,323.77a41.81,41.81,0,0,1-10.32-16.62L316,304h-3.78c-2.71,1-5.64,1.93-8.76,2.8-3.93,1.11-7.64,1.95-11.09,2.6l3.1,8.64a5,5,0,0,1,.22.84h0a7.71,7.71,0,0,1,.1,2.58,6.1,6.1,0,0,1-.21,1.05,10,10,0,0,0,7,12.33,10.74,10.74,0,0,1,4.75,2.74l15,14.55c4.11,3.48,11.48,2,15.51-2a12.19,12.19,0,0,0,2.55-13A9.12,9.12,0,0,0,339.55,335.59Z" transform="translate(-48.85 -141.87)"/><path class="cls-3" d="M158.47,331.21c-.56,3.72,4.17,6.35,4.54,8.36l3.52-6.91c.25-3.21-4.17-6.45-4.43-8.57Z" transform="translate(-48.85 -141.87)"/><path class="cls-3" d="M165.17,318.08c-.56,3.72,4.17,6.35,4.54,8.36l3.52-6.91c.25-3.21-4.17-6.45-4.43-8.57Z" transform="translate(-48.85 -141.87)"/><path class="cls-3" d="M376.77,330c-1.51-.87-3.49-1.29-6.63-1a.87.87,0,0,1-.95-.78.86.86,0,0,1,.45-.84.76.76,0,0,1,.34-.11c4.26-.4,6.73.43,8.58,1.82l4.1-2.1-13.15-23h-9.84l-8.63,4.8L365.1,336Z" transform="translate(-48.85 -141.87)"/><path class="cls-3" d="M429.53,256.5l-1.13-2c-2.68-4.74-5-9.32-7.07-13.69-3.07,6.69-6.14,14-9.05,22S407,278.3,405,285.39c4.21-2,8.86-4,13.95-5.93,1.55-3.94,3.29-8,5.26-12.27C426,263.42,427.74,259.86,429.53,256.5Z" transform="translate(-48.85 -141.87)"/><path class="cls-3" d="M442.72,264.77c-2.82-4.75-5.36-9.38-7.66-13.84-2.47,5.27-4.93,11.08-7.25,17.41s-4.28,12.54-5.83,18.23c4.78-2,9.92-4,15.42-5.89,4.42-1.51,8.7-2.83,12.8-4C447.72,273,445.21,269,442.72,264.77Z" transform="translate(-48.85 -141.87)"/><path class="cls-3" d="M246.86,194.13a85,85,0,0,1,19.72-2.27,82,82,0,0,1,18.95,2.27h14a18,18,0,0,0,1-7.22,3.78,3.78,0,0,0-1.35-2.58c-7.84-6.53-20.66-10.7-33.33-10.74h-.15c-11.66,0-24.46,3.81-32.49,9.59a3.72,3.72,0,0,0-1.43,2,16.3,16.3,0,0,0,.16,8.94Z" transform="translate(-48.85 -141.87)"/><path class="cls-3" d="M153.4,341.13a9.58,9.58,0,0,1-1,1.55h0c-.95,2.92.59,7.38,0,9.22a13.15,13.15,0,0,0,7.44-6.2c.16-3.18-4.18-6.38-4.44-8.49Z" transform="translate(-48.85 -141.87)"/><path class="cls-3" d="M390.12,341.07a26.6,26.6,0,0,1-6.35-3.95,28.57,28.57,0,0,1-3.45-3.68c-.51-.61-1-1.19-1.49-1.71l-14.27,7.94,6.34,12.58L388.48,342Z" transform="translate(-48.85 -141.87)"/><path class="cls-3" d="M410.31,338.7a7.72,7.72,0,0,0-4.85-1.51c-2.64-.15-5.57.74-8.4,1.6-.61.18-1.21.37-1.8.58a14.73,14.73,0,0,0-2,.91,10.34,10.34,0,0,0-2.84,3.12c-.91,1.22-1.77,2.49-2.57,3.79-.29.47-.65.9-.94,1.37-2.19,3.46-1.71,6.2-.54,7.61a4.42,4.42,0,0,0,5.2,1,4.78,4.78,0,0,0,2.58-2.44c1.3-2.81,1.28-6.87.66-10.19a16,16,0,0,0,5.16,3.06,11.51,11.51,0,0,0,5.95.64,7.4,7.4,0,0,0,5.16-3.48A5,5,0,0,0,410.31,338.7ZM392.59,354a3,3,0,0,1-1.28,1.39l-.35.17a2.73,2.73,0,0,1-3.23-.47c-.75-.91-1-2.91.67-5.58.21-.35.66-1,1.18-1.68,1.25-1.75,2.39-3.36,3.14-4.67C393.63,346.31,394,351,392.59,354Zm17-10.07a5.07,5.07,0,0,1-2,1.9,6.45,6.45,0,0,1-2,.7,9.57,9.57,0,0,1-5.05-.56,14.07,14.07,0,0,1-6.33-4.56c1.06-.26,2.16-.59,3.31-.94,2.69-.81,5.47-1.65,7.8-1.52a6.29,6.29,0,0,1,3.79,1.07A3.22,3.22,0,0,1,409.58,343.91Z" transform="translate(-48.85 -141.87)"/><path class="cls-3" d="M393.28,323.69c-1,2.84-.15,5.14.77,7.55.84,2.23,1.7,4.51.87,7l18.13-10.54-7.1-11.1Z" transform="translate(-48.85 -141.87)"/><path class="cls-3" d="M80.22,198.36c.21.72.41,1.44.62,2.17,1.46,5.24,2.62,10.26,3.56,15,4.6-5.75,9.34-12.12,14.07-19.12s8.88-13.77,12.51-20.18c-4.56.94-9.56,1.78-15,2.4Q92.35,183.8,88,189.27C85.35,192.5,82.76,195.53,80.22,198.36Z" transform="translate(-48.85 -141.87)"/><path class="cls-3" d="M107.38,194.13h14.81c2.39-4,4.58-7.88,6.57-11.61-5,.83-10.25,1.59-15.77,2.22-2.31,3.12-4.77,6.31-7.37,9.54A11.29,11.29,0,0,1,107.38,194.13Z" transform="translate(-48.85 -141.87)"/><path class="cls-3" d="M150.81,161.19a7.68,7.68,0,0,0,4.88,1.4c2.64.09,5.55-.86,8.36-1.77.6-.2,1.2-.4,1.78-.63a12.66,12.66,0,0,0,2-.95,10.22,10.22,0,0,0,2.78-3.18q1.32-1.86,2.49-3.84c.28-.48.63-.91.91-1.39,2.11-3.51,1.58-6.24.38-7.63a4.44,4.44,0,0,0-5.23-.87,4.74,4.74,0,0,0-2.52,2.5c-1.25,2.83-1.14,6.89-.44,10.19a16.14,16.14,0,0,0-5.23-2.94,11.32,11.32,0,0,0-6-.51,7.44,7.44,0,0,0-5.09,3.58A5,5,0,0,0,150.81,161.19Zm17.38-15.66a3,3,0,0,1,1.25-1.42l.35-.17a2.72,2.72,0,0,1,3.24.4c.76.89,1.08,2.88-.55,5.59-.21.35-.64,1-1.14,1.71-1.22,1.77-2.32,3.41-3.05,4.73C167.32,153.22,166.88,148.51,168.19,145.53ZM151.42,156a5.07,5.07,0,0,1,2-1.95,6.75,6.75,0,0,1,1.95-.75,9.68,9.68,0,0,1,5.05.46,14.13,14.13,0,0,1,6.44,4.42c-1.06.28-2.16.64-3.3,1-2.67.87-5.43,1.77-7.76,1.69a6.24,6.24,0,0,1-3.81-1A3.2,3.2,0,0,1,151.42,156Z" transform="translate(-48.85 -141.87)"/><path class="cls-3" d="M168.15,175.82c1-2.85,0-5.13-.93-7.52-.89-2.21-1.8-4.48-1-7l-17.89,10.93,7.33,10.94Z" transform="translate(-48.85 -141.87)"/><path class="cls-3" d="M170.94,158.38a26.28,26.28,0,0,1,6.43,3.82,28.09,28.09,0,0,1,3.53,3.6c.52.6,1,1.17,1.52,1.68l14.1-8.25-6.61-12.44-17.35,10.6Z" transform="translate(-48.85 -141.87)"/><path class="cls-3" d="M184.52,169.12c1.53.84,3.52,1.22,6.65.86a.88.88,0,0,1,1,.76.86.86,0,0,1-.43.85.92.92,0,0,1-.34.12c-4.25.49-6.73-.28-8.61-1.64l-4.06,2.19,13.13,21.87h11.42l7.45-4.35-14.63-26.87Z" transform="translate(-48.85 -141.87)"/><path class="cls-3" d="M107.38,304a10.61,10.61,0,0,1-10.61-10.61v-1.11c-5,2.4-13.13,8.84-17.56,13a15.15,15.15,0,0,1-9.4,4.14,1,1,0,0,0-.45.13,12.69,12.69,0,0,0-2.85,2.63l-.05.05a1.17,1.17,0,0,0-.23.62,5.21,5.21,0,0,0,.93,2.79c1.93,3.33,6.7,8.38,13,13.61-.5,1.67-.45,4.1.72,5.25a.6.6,0,0,0,.08.08l.08.05c1.15.71,2.94.47,4.38-.13a6.7,6.7,0,0,0,.89-.44l.47.33.55.4c9.3,6.66,17.32,10.33,18.81,8.42l0,0v0a12.74,12.74,0,0,0,1.86-3.41,1.06,1.06,0,0,0,0-.47,8.13,8.13,0,0,1-.16-1c-11-4-24.47-13.49-32.66-24.08,0,0,18.36,17.42,32.72,20.42a15.81,15.81,0,0,1,1.83-5.46c3.48-6.25,8.77-18.3,8.62-22.62a14.36,14.36,0,0,0-.32-2.52Z" transform="translate(-48.85 -141.87)"/><path class="cls-3" d="M139.61,334.1a15.74,15.74,0,0,0-1.42,3.92c2.11.78,6.4-1,8.58-.71l1-2.05c.83-3.82-4-6.56-4.41-8.61Z" transform="translate(-48.85 -141.87)"/><path class="cls-3" d="M146.28,342.89c-2.81-1.07-6.4,1.37-8,.89,0,.17.09.34.13.5a11.43,11.43,0,0,0,5.72,6.9,10.73,10.73,0,0,0,2.72,1c1.31-1.85,0-6.12.8-8A3.43,3.43,0,0,1,146.28,342.89Z" transform="translate(-48.85 -141.87)"/><path class="cls-3" d="M150.58,321.23a3.9,3.9,0,0,0-3.86.17c.56,2.83,4.1,5.66,4.28,7.63l1.29-2.52A3.93,3.93,0,0,0,150.58,321.23Z" transform="translate(-48.85 -141.87)"/><path class="cls-3" d="M63.34,251.82,65.18,250l-1-1.19-.81,0-2.41,0c-1,0-1.55,1-1.81,1.78a5.35,5.35,0,0,0-.21.69,8,8,0,0,0-2.83-.54c-2.92-.05-5.24,1.31-5.26,3.1S53.11,257,56,257.05a7.89,7.89,0,0,0,3-.5,1.38,1.38,0,0,0,.06.26,2.78,2.78,0,0,0,.86,1.51,1.6,1.6,0,0,0,.91.33h.33l2.19.05H64l1.11-1-1.78-2,2.12-1.93ZM56,256.19c-2.36,0-4.33-1.13-4.31-2.39s2-2.29,4.39-2.25a6.94,6.94,0,0,1,2.71.57c0,.39,0,.88-.06,1.55a14.52,14.52,0,0,0,.07,2A6.9,6.9,0,0,1,56,256.19Z" transform="translate(-48.85 -141.87)"/><path class="cls-3" d="M73.51,202.43c3.66-4.52,7.45-9.57,11.23-15.15s7.16-11.14,10-16.29c-5.12.8-10.59,1.5-16.38,2-4.66.4-9.13.65-13.38.78,1.51,4.23,3,8.7,4.39,13.38Q71.78,195.1,73.51,202.43Z" transform="translate(-48.85 -141.87)"/><path class="cls-3" d="M50.59,203.62l4.76,2.46a.18.18,0,0,0,.22,0l3.81-3.77a.18.18,0,0,1,.31.16l-.87,5.29a.17.17,0,0,0,.09.19l4.77,2.46a.18.18,0,0,1,0,.34l-5.31.81a.19.19,0,0,0-.15.16L57.3,217A.18.18,0,0,1,57,217l-2.41-4.79a.19.19,0,0,0-.19-.1l-5.3.81a.18.18,0,0,1-.16-.31l3.82-3.77a.18.18,0,0,0,0-.21l-2.41-4.8A.18.18,0,0,1,50.59,203.62Z" transform="translate(-48.85 -141.87)"/><path class="cls-3" d="M438.3,296.2l4.64,2.71a.18.18,0,0,0,.21,0l4-3.57a.18.18,0,0,1,.3.17l-1.14,5.24a.18.18,0,0,0,.09.2l4.63,2.71a.18.18,0,0,1-.07.33l-5.34.54a.17.17,0,0,0-.16.14l-1.14,5.24a.19.19,0,0,1-.35,0L441.81,305a.17.17,0,0,0-.18-.1l-5.34.53a.18.18,0,0,1-.14-.32l4-3.57a.17.17,0,0,0,0-.2L438,296.43A.18.18,0,0,1,438.3,296.2Z" transform="translate(-48.85 -141.87)"/><path class="cls-3" d="M118.8,149.07l-4.92,4.57a.23.23,0,0,1-.27,0l-5.87-3.27a.23.23,0,0,0-.32.29l2.83,6.1a.25.25,0,0,1,0,.27l-4.93,4.57a.23.23,0,0,0,.18.39l6.67-.8a.23.23,0,0,1,.24.13l2.82,6.1a.23.23,0,0,0,.43,0l1.3-6.6a.22.22,0,0,1,.2-.18l6.67-.8a.23.23,0,0,0,.09-.43L118,156.12a.23.23,0,0,1-.12-.25l1.3-6.59A.23.23,0,0,0,118.8,149.07Zm-3.13,10.39-.63,3.18a.23.23,0,0,1-.43.05l-1.36-2.94a.23.23,0,0,0-.24-.13l-3.22.39a.23.23,0,0,1-.18-.39l2.38-2.21a.23.23,0,0,0,.05-.26l-1.36-3a.23.23,0,0,1,.32-.29l2.83,1.58a.23.23,0,0,0,.26,0l2.38-2.21a.23.23,0,0,1,.38.21l-.63,3.18a.23.23,0,0,0,.12.25l2.83,1.58a.23.23,0,0,1-.08.42l-3.23.39A.22.22,0,0,0,115.67,159.46Z" transform="translate(-48.85 -141.87)"/><path class="cls-3" d="M80.37,286.12l-5.67,2a.2.2,0,0,1-.23-.07l-3.62-4.79a.2.2,0,0,0-.36.12l.11,6a.22.22,0,0,1-.14.2l-5.68,2a.2.2,0,0,0,0,.38l5.74,1.76a.2.2,0,0,1,.15.19l.1,6a.2.2,0,0,0,.37.11L74.59,295a.23.23,0,0,1,.23-.08l5.74,1.76a.2.2,0,0,0,.22-.32l-3.61-4.79a.2.2,0,0,1,0-.24l3.44-4.92A.2.2,0,0,0,80.37,286.12Zm-6.31,7.36-1.66,2.37a.2.2,0,0,1-.37-.11l0-2.9a.2.2,0,0,0-.14-.19l-2.77-.84a.2.2,0,0,1,0-.39l2.74-.94a.21.21,0,0,0,.13-.2l-.05-2.9a.21.21,0,0,1,.37-.12L74,289.57a.2.2,0,0,0,.23.07l2.74-.95a.2.2,0,0,1,.23.31l-1.66,2.38a.21.21,0,0,0,0,.24l1.75,2.31a.2.2,0,0,1-.22.32l-2.77-.85A.2.2,0,0,0,74.06,293.48Z" transform="translate(-48.85 -141.87)"/><path class="cls-3" d="M438.38,209l-1.19,6.61a.25.25,0,0,1-.2.19l-6.66.9a.23.23,0,0,0-.08.43l5.93,3.18a.24.24,0,0,1,.11.24l-1.19,6.62a.22.22,0,0,0,.38.2l4.85-4.65a.24.24,0,0,1,.27,0l5.92,3.18a.23.23,0,0,0,.31-.3l-2.92-6.06a.23.23,0,0,1,0-.26l4.86-4.65a.23.23,0,0,0-.19-.39l-6.66.91a.23.23,0,0,1-.24-.13l-2.92-6.05A.23.23,0,0,0,438.38,209Zm3.73,10.19,1.41,2.92a.23.23,0,0,1-.31.3l-2.86-1.53a.21.21,0,0,0-.26,0l-2.35,2.24a.22.22,0,0,1-.38-.2l.58-3.19a.22.22,0,0,0-.12-.24L435,218a.22.22,0,0,1,.07-.42l3.22-.44a.23.23,0,0,0,.19-.19l.58-3.19a.23.23,0,0,1,.43-.06l1.41,2.92a.22.22,0,0,0,.23.13l3.22-.44a.23.23,0,0,1,.18.39l-2.34,2.25A.23.23,0,0,0,442.11,219.16Z" transform="translate(-48.85 -141.87)"/><path class="cls-3" d="M324.31,148.28l-3.16,5.92a.23.23,0,0,1-.25.12l-6.61-1.18a.23.23,0,0,0-.21.38l4.66,4.85a.21.21,0,0,1,0,.26l-3.17,5.93a.23.23,0,0,0,.3.31l6-2.93a.23.23,0,0,1,.26.05l4.66,4.84a.23.23,0,0,0,.39-.19l-.92-6.66a.23.23,0,0,1,.13-.23l6-2.94a.23.23,0,0,0,0-.43l-6.62-1.18a.22.22,0,0,1-.19-.19l-.92-6.66A.23.23,0,0,0,324.31,148.28Zm.43,10.84.44,3.22a.23.23,0,0,1-.39.18l-2.25-2.33a.23.23,0,0,0-.26-.05l-2.92,1.42a.23.23,0,0,1-.3-.32l1.53-2.86a.21.21,0,0,0,0-.26l-2.24-2.34a.22.22,0,0,1,.2-.38l3.19.57a.23.23,0,0,0,.24-.12l1.53-2.86a.23.23,0,0,1,.43.08l.44,3.21a.23.23,0,0,0,.19.19l3.19.57a.23.23,0,0,1,.06.43l-2.92,1.42A.2.2,0,0,0,324.74,159.12Z" transform="translate(-48.85 -141.87)"/><polygon class="cls-3" points="12.24 132.74 9.03 134.72 5.83 132.74 7.82 135.94 5.83 139.15 9.03 137.16 12.24 139.15 10.25 135.94 12.24 132.74"/><polygon class="cls-3" points="293.39 175.73 290.19 177.72 286.99 175.73 288.98 178.93 286.99 182.14 290.19 180.15 293.39 182.14 291.41 178.93 293.39 175.73"/><polygon class="cls-3" points="309.07 198.65 305.87 200.64 302.66 198.65 304.65 201.85 302.66 205.06 305.87 203.07 309.07 205.06 307.08 201.85 309.07 198.65"/><polygon class="cls-3" points="86.33 171.44 83.12 173.43 79.92 171.44 81.91 174.65 79.92 177.85 83.12 175.86 86.33 177.85 84.34 174.65 86.33 171.44"/><polygon class="cls-3" points="131.13 202.31 127.93 204.29 124.72 202.31 126.71 205.51 124.72 208.71 127.93 206.72 131.13 208.71 129.15 205.51 131.13 202.31"/><polygon class="cls-3" points="236.72 173.62 233.51 175.61 230.31 173.62 232.3 176.83 230.31 180.03 233.51 178.04 236.72 180.03 234.73 176.83 236.72 173.62"/><polygon class="cls-3" points="31.05 76.63 27.84 78.62 24.64 76.63 26.63 79.84 24.64 83.04 27.84 81.06 31.05 83.04 29.06 79.84 31.05 76.63"/><polygon class="cls-3" points="95.81 38.07 92.61 40.06 89.4 38.07 91.39 41.28 89.4 44.48 92.61 42.49 95.81 44.48 93.82 41.28 95.81 38.07"/><polygon class="cls-3" points="269.67 34.86 266.47 36.85 263.26 34.86 265.25 38.06 263.26 41.27 266.47 39.28 269.67 41.27 267.68 38.06 269.67 34.86"/><polygon class="cls-3" points="191.95 8.36 188.75 10.35 185.54 8.36 187.53 11.57 185.54 14.77 188.75 12.79 191.95 14.77 189.96 11.57 191.95 8.36"/><polygon class="cls-3" points="340.58 17.52 337.38 19.51 334.17 17.52 336.16 20.73 334.17 23.93 337.38 21.94 340.58 23.93 338.59 20.73 340.58 17.52"/><polygon class="cls-3" points="320.14 40.39 316.94 42.38 313.73 40.39 315.72 43.59 313.73 46.8 316.94 44.81 320.14 46.8 318.15 43.59 320.14 40.39"/><polygon class="cls-3" points="376.88 86.56 373.67 88.55 370.47 86.56 372.46 89.76 370.47 92.97 373.67 90.98 376.88 92.97 374.89 89.76 376.88 86.56"/><polygon class="cls-3" points="376.88 168.24 373.67 170.23 370.47 168.24 372.46 171.44 370.47 174.65 373.67 172.66 376.88 174.65 374.89 171.44 376.88 168.24"/><polygon class="cls-3" points="369.99 149.44 366.79 151.43 363.58 149.44 365.57 152.65 363.58 155.85 366.79 153.86 369.99 155.85 368 152.65 369.99 149.44"/><polygon class="cls-3" points="174.08 27.7 184.42 26.81 174.08 25.92 178.13 20.73 172.94 24.78 172.05 14.44 171.16 24.78 165.97 20.73 170.02 25.92 159.68 26.81 170.02 27.7 165.97 32.89 171.16 28.84 172.05 39.19 172.94 28.84 178.13 32.89 174.08 27.7"/><polygon class="cls-3" points="141.44 185.46 151.79 184.57 141.44 183.68 145.5 178.49 140.3 182.54 139.41 172.2 138.53 182.54 133.33 178.49 137.39 183.68 127.04 184.57 137.39 185.46 133.33 190.65 138.53 186.6 139.41 196.95 140.3 186.6 145.5 190.65 141.44 185.46"/><polygon class="cls-3" points="243.08 203.57 253.43 202.69 243.08 201.8 247.14 196.6 241.94 200.66 241.06 190.31 240.17 200.66 234.97 196.6 239.03 201.8 228.68 202.69 239.03 203.57 234.97 208.77 240.17 204.71 241.06 215.06 241.94 204.71 247.14 208.77 243.08 203.57"/></g></g></g></svg>